<svg xmlns="http://www.w3.org/2000/svg" viewBox="0 0 206.326 206.326" class="body-svg">
  <!--
    RESONANCE BODY - Human Silhouette from SVGRepo
    Body path is LOCKED - DO NOT MODIFY
    Center: x=103, Body spans roughly x=70-140
  -->
  
  <style>
    /* Light mode overrides */
    .light-theme #body-outline { stroke: rgba(50,40,70,0.3) !important; fill: rgba(50,40,70,0.05) !important; }
    .light-theme #skeletal-layer path, .light-theme #skeletal-layer circle { stroke: rgba(50,40,70,0.15) !important; fill: rgba(50,40,70,0.1) !important; }
    .light-theme .organ { stroke-opacity: 0.35 !important; fill-opacity: 0.08 !important; }
    .light-theme .chakra-label { fill-opacity: 0.9 !important; }
    .light-theme .organ-label { fill-opacity: 0.8 !important; }
    /* Energy spine lines in light mode */
    .light-theme .energy-spine-line { opacity: 0.08 !important; }
    .light-theme .energy-spine-node { opacity: 0.15 !important; }
  </style>
  
  <defs>
    <!-- Glow gradients -->
    <radialGradient id="glow-root" cx="50%" cy="50%" r="60%">
      <stop offset="0%" stop-color="#cc3333" stop-opacity="0.9"/>
      <stop offset="60%" stop-color="#cc3333" stop-opacity="0.3"/>
      <stop offset="100%" stop-color="#cc3333" stop-opacity="0"/>
    </radialGradient>
    <radialGradient id="glow-sacral" cx="50%" cy="50%" r="60%">
      <stop offset="0%" stop-color="#dd6600" stop-opacity="0.9"/>
      <stop offset="60%" stop-color="#dd6600" stop-opacity="0.3"/>
      <stop offset="100%" stop-color="#dd6600" stop-opacity="0"/>
    </radialGradient>
    <radialGradient id="glow-solar" cx="50%" cy="50%" r="60%">
      <stop offset="0%" stop-color="#ccaa00" stop-opacity="0.9"/>
      <stop offset="60%" stop-color="#ccaa00" stop-opacity="0.3"/>
      <stop offset="100%" stop-color="#ccaa00" stop-opacity="0"/>
    </radialGradient>
    <radialGradient id="glow-heart" cx="50%" cy="50%" r="60%">
      <stop offset="0%" stop-color="#00bb77" stop-opacity="0.9"/>
      <stop offset="60%" stop-color="#00bb77" stop-opacity="0.3"/>
      <stop offset="100%" stop-color="#00bb77" stop-opacity="0"/>
    </radialGradient>
    <radialGradient id="glow-throat" cx="50%" cy="50%" r="60%">
      <stop offset="0%" stop-color="#00aacc" stop-opacity="0.9"/>
      <stop offset="60%" stop-color="#00aacc" stop-opacity="0.3"/>
      <stop offset="100%" stop-color="#00aacc" stop-opacity="0"/>
    </radialGradient>
    <radialGradient id="glow-thirdeye" cx="50%" cy="50%" r="60%">
      <stop offset="0%" stop-color="#6655cc" stop-opacity="0.9"/>
      <stop offset="60%" stop-color="#6655cc" stop-opacity="0.3"/>
      <stop offset="100%" stop-color="#6655cc" stop-opacity="0"/>
    </radialGradient>
    <radialGradient id="glow-crown" cx="50%" cy="50%" r="60%">
      <stop offset="0%" stop-color="#aa55dd" stop-opacity="0.9"/>
      <stop offset="60%" stop-color="#aa55dd" stop-opacity="0.3"/>
      <stop offset="100%" stop-color="#aa55dd" stop-opacity="0"/>
    </radialGradient>
    
    <linearGradient id="body-fill" x1="0%" y1="0%" x2="100%" y2="0%">
      <stop offset="0%" stop-color="rgba(255,255,255,0.02)"/>
      <stop offset="50%" stop-color="rgba(255,255,255,0.06)"/>
      <stop offset="100%" stop-color="rgba(255,255,255,0.02)"/>
    </linearGradient>
    
    <!-- Energy spine line gradients (blend between adjacent chakra colors) -->
    <linearGradient id="spine-crown-thirdeye" x1="0%" y1="0%" x2="0%" y2="100%">
      <stop offset="0%" stop-color="#aa55dd"/>
      <stop offset="100%" stop-color="#6655cc"/>
    </linearGradient>
    <linearGradient id="spine-thirdeye-throat" x1="0%" y1="0%" x2="0%" y2="100%">
      <stop offset="0%" stop-color="#6655cc"/>
      <stop offset="100%" stop-color="#00aacc"/>
    </linearGradient>
    <linearGradient id="spine-throat-heart" x1="0%" y1="0%" x2="0%" y2="100%">
      <stop offset="0%" stop-color="#00aacc"/>
      <stop offset="100%" stop-color="#00bb77"/>
    </linearGradient>
    <linearGradient id="spine-heart-solar" x1="0%" y1="0%" x2="0%" y2="100%">
      <stop offset="0%" stop-color="#00bb77"/>
      <stop offset="100%" stop-color="#ccaa00"/>
    </linearGradient>
    <linearGradient id="spine-solar-sacral" x1="0%" y1="0%" x2="0%" y2="100%">
      <stop offset="0%" stop-color="#ccaa00"/>
      <stop offset="100%" stop-color="#dd6600"/>
    </linearGradient>
    <linearGradient id="spine-sacral-root" x1="0%" y1="0%" x2="0%" y2="100%">
      <stop offset="0%" stop-color="#dd6600"/>
      <stop offset="100%" stop-color="#cc3333"/>
    </linearGradient>
    
    <!-- Filter for energy line glow -->
    <filter id="energy-line-glow" x="-50%" y="-50%" width="200%" height="200%">
      <feGaussianBlur stdDeviation="1.5" result="blur"/>
      <feMerge>
        <feMergeNode in="blur"/>
        <feMergeNode in="SourceGraphic"/>
      </feMerge>
    </filter>
  </defs>
  
  <!-- BODY SILHOUETTE - LOCKED, DO NOT MODIFY -->
  <g id="body-silhouette">
    <path id="body-outline" d="M104.265,117.959c-0.304,3.58,2.126,22.529,3.38,29.959c0.597,3.52,2.234,9.255,1.645,12.3
      c-0.841,4.244-1.084,9.736-0.621,12.934c0.292,1.942,1.211,10.899-0.104,14.175c-0.688,1.718-1.949,10.522-1.949,10.522
      c-3.285,8.294-1.431,7.886-1.431,7.886c1.017,1.248,2.759,0.098,2.759,0.098c1.327,0.846,2.246-0.201,2.246-0.201
      c1.139,0.943,2.467-0.116,2.467-0.116c1.431,0.743,2.758-0.627,2.758-0.627c0.822,0.414,1.023-0.109,1.023-0.109
      c2.466-0.158-1.376-8.05-1.376-8.05c-0.92-7.088,0.913-11.033,0.913-11.033c6.004-17.805,6.309-22.53,3.909-29.24
      c-0.676-1.937-0.847-2.704-0.536-3.545c0.719-1.941,0.195-9.748,1.072-12.848c1.692-5.979,3.361-21.142,4.231-28.217
      c1.169-9.53-4.141-22.308-4.141-22.308c-1.163-5.2,0.542-23.727,0.542-23.727c2.381,3.705,2.29,10.245,2.29,10.245
      c-0.378,6.859,5.541,17.342,5.541,17.342c2.844,4.332,3.921,8.442,3.921,8.747c0,1.248-0.273,4.269-0.273,4.269l0.109,2.631
      c0.049,0.67,0.426,2.977,0.365,4.092c-0.444,6.862,0.646,5.571,0.646,5.571c0.92,0,1.931-5.522,1.931-5.522
      c0,1.424-0.348,5.687,0.42,7.295c0.919,1.918,1.595-0.329,1.607-0.78c0.243-8.737,0.768-6.448,0.768-6.448
      c0.511,7.088,1.139,8.689,2.265,8.135c0.853-0.407,0.073-8.506,0.073-8.506c1.461,4.811,2.569,5.577,2.569,5.577
      c2.411,1.693,0.92-2.983,0.585-3.909c-1.784-4.92-1.839-6.625-1.839-6.625c2.229,4.421,3.909,4.257,3.909,4.257
      c2.174-0.694-1.9-6.954-4.287-9.953c-1.218-1.528-2.789-3.574-3.245-4.789c-0.743-2.058-1.304-8.674-1.304-8.674
      c-0.225-7.807-2.155-11.198-2.155-11.198c-3.3-5.282-3.921-15.135-3.921-15.135l-0.146-16.635
      c-1.157-11.347-9.518-11.429-9.518-11.429c-8.451-1.258-9.627-3.988-9.627-3.988c-1.79-2.576-0.767-7.514-0.767-7.514
      c1.485-1.208,2.058-4.415,2.058-4.415c2.466-1.891,2.345-4.658,1.206-4.628c-0.914,0.024-0.707-0.733-0.707-0.733
      C115.068,0.636,104.01,0,104.01,0h-1.688c0,0-11.063,0.636-9.523,13.089c0,0,0.207,0.758-0.715,0.733
      c-1.136-0.03-1.242,2.737,1.215,4.628c0,0,0.572,3.206,2.058,4.415c0,0,1.023,4.938-0.767,7.514c0,0-1.172,2.73-9.627,3.988
      c0,0-8.375,0.082-9.514,11.429l-0.158,16.635c0,0-0.609,9.853-3.922,15.135c0,0-1.921,3.392-2.143,11.198
      c0,0-0.563,6.616-1.303,8.674c-0.451,1.209-2.021,3.255-3.249,4.789c-2.408,2.993-6.455,9.24-4.29,9.953
      c0,0,1.689,0.164,3.909-4.257c0,0-0.046,1.693-1.827,6.625c-0.35,0.914-1.839,5.59,0.573,3.909c0,0,1.117-0.767,2.569-5.577
      c0,0-0.779,8.099,0.088,8.506c1.133,0.555,1.751-1.047,2.262-8.135c0,0,0.524-2.289,0.767,6.448
      c0.012,0.451,0.673,2.698,1.596,0.78c0.779-1.608,0.429-5.864,0.429-7.295c0,0,0.999,5.522,1.933,5.522
      c0,0,1.099,1.291,0.648-5.571c-0.073-1.121,0.32-3.422,0.369-4.092l0.106-2.631c0,0-0.274-3.014-0.274-4.269
      c0-0.311,1.078-4.415,3.921-8.747c0,0,5.913-10.488,5.532-17.342c0,0-0.082-6.54,2.299-10.245c0,0,1.69,18.526,0.545,23.727
      c0,0-5.319,12.778-4.146,22.308c0.864,7.094,2.53,22.237,4.226,28.217c0.886,3.094,0.362,10.899,1.072,12.848
      c0.32,0.847,0.152,1.627-0.536,3.545c-2.387,6.71-2.083,11.436,3.921,29.24c0,0,1.848,3.945,0.914,11.033
      c0,0-3.836,7.892-1.379,8.05c0,0,0.192,0.523,1.023,0.109c0,0,1.327,1.37,2.761,0.627c0,0,1.328,1.06,2.463,0.116
      c0,0,0.91,1.047,2.237,0.201c0,0,1.742,1.175,2.777-0.098c0,0,1.839,0.408-1.435-7.886c0,0-1.254-8.793-1.945-10.522
      c-1.318-3.275-0.387-12.251-0.106-14.175c0.453-3.216,0.21-8.695-0.618-12.934c-0.606-3.038,1.035-8.774,1.641-12.3
      c1.245-7.423,3.685-26.373,3.38-29.959l1.008,0.354C103.809,118.312,104.265,117.959,104.265,117.959z"
      stroke="rgba(255,255,255,0.18)"
      stroke-width="0.5"
      fill="url(#body-fill)"
    />
  </g>
  
  <!-- SKELETAL HINTS - Subtle spine and structure -->
  <g id="skeletal-layer" opacity="0.4">
    <!-- Spine -->
    <path id="spine" d="M103 28 L103 38 Q103 48, 103 58 Q103 68, 103 78 Q103 88, 103 98 L103 115"
      stroke="rgba(255,255,255,0.1)" stroke-width="1.5" stroke-linecap="round" fill="none"/>
    
    <!-- Vertebrae dots -->
    <g id="vertebrae">
      <circle cx="103" cy="32" r="1" fill="rgba(255,255,255,0.08)"/>
      <circle cx="103" cy="42" r="1" fill="rgba(255,255,255,0.08)"/>
      <circle cx="103" cy="52" r="1" fill="rgba(255,255,255,0.08)"/>
      <circle cx="103" cy="62" r="1" fill="rgba(255,255,255,0.08)"/>
      <circle cx="103" cy="72" r="1" fill="rgba(255,255,255,0.08)"/>
      <circle cx="103" cy="82" r="1" fill="rgba(255,255,255,0.08)"/>
      <circle cx="103" cy="92" r="1" fill="rgba(255,255,255,0.08)"/>
      <circle cx="103" cy="102" r="1" fill="rgba(255,255,255,0.08)"/>
    </g>
    
    <!-- Ribcage hints -->
    <g id="ribcage">
      <path d="M103 42 Q95 44, 88 50" stroke="rgba(255,255,255,0.06)" stroke-width="0.5" fill="none"/>
      <path d="M103 42 Q111 44, 118 50" stroke="rgba(255,255,255,0.06)" stroke-width="0.5" fill="none"/>
      <path d="M103 50 Q94 53, 86 60" stroke="rgba(255,255,255,0.06)" stroke-width="0.5" fill="none"/>
      <path d="M103 50 Q112 53, 120 60" stroke="rgba(255,255,255,0.06)" stroke-width="0.5" fill="none"/>
      <path d="M103 58 Q93 62, 85 70" stroke="rgba(255,255,255,0.06)" stroke-width="0.5" fill="none"/>
      <path d="M103 58 Q113 62, 121 70" stroke="rgba(255,255,255,0.06)" stroke-width="0.5" fill="none"/>
    </g>
    
    <!-- Pelvis hint -->
    <path id="pelvis" d="M88 108 Q96 116, 103 118 Q110 116, 118 108"
      stroke="rgba(255,255,255,0.08)" stroke-width="1" fill="none"/>
  </g>
  
  <!-- ENERGY SPINE - Chakra connecting lines that glow with energy flow -->
  <g id="energy-spine-layer" class="energy-spine-layer">
    <!-- Line segments connecting chakra centers along spine -->
    <!-- Each segment glows when energy flows between adjacent chakras -->
    <line id="spine-line-crown-thirdeye" class="energy-spine-line" 
      x1="103" y1="6" x2="103" y2="14" 
      stroke="url(#spine-crown-thirdeye)" stroke-width="2" stroke-linecap="round"
      opacity="0.05" filter="url(#energy-line-glow)"/>
    <line id="spine-line-thirdeye-throat" class="energy-spine-line"
      x1="103" y1="14" x2="103" y2="26"
      stroke="url(#spine-thirdeye-throat)" stroke-width="2" stroke-linecap="round"
      opacity="0.05" filter="url(#energy-line-glow)"/>
    <line id="spine-line-throat-heart" class="energy-spine-line"
      x1="103" y1="26" x2="103" y2="58"
      stroke="url(#spine-throat-heart)" stroke-width="2" stroke-linecap="round"
      opacity="0.05" filter="url(#energy-line-glow)"/>
    <line id="spine-line-heart-solar" class="energy-spine-line"
      x1="103" y1="58" x2="103" y2="90"
      stroke="url(#spine-heart-solar)" stroke-width="2" stroke-linecap="round"
      opacity="0.05" filter="url(#energy-line-glow)"/>
    <line id="spine-line-solar-sacral" class="energy-spine-line"
      x1="103" y1="90" x2="103" y2="108"
      stroke="url(#spine-solar-sacral)" stroke-width="2" stroke-linecap="round"
      opacity="0.05" filter="url(#energy-line-glow)"/>
    <line id="spine-line-sacral-root" class="energy-spine-line"
      x1="103" y1="108" x2="103" y2="120"
      stroke="url(#spine-sacral-root)" stroke-width="2" stroke-linecap="round"
      opacity="0.05" filter="url(#energy-line-glow)"/>
    
    <!-- Chakra center nodes (small circles at each chakra point) -->
    <circle id="spine-node-crown" class="energy-spine-node" cx="103" cy="6" r="2" fill="#aa55dd" opacity="0.1"/>
    <circle id="spine-node-thirdeye" class="energy-spine-node" cx="103" cy="14" r="2" fill="#6655cc" opacity="0.1"/>
    <circle id="spine-node-throat" class="energy-spine-node" cx="103" cy="26" r="2" fill="#00aacc" opacity="0.1"/>
    <circle id="spine-node-heart" class="energy-spine-node" cx="103" cy="58" r="2.5" fill="#00bb77" opacity="0.1"/>
    <circle id="spine-node-solar" class="energy-spine-node" cx="103" cy="90" r="2" fill="#ccaa00" opacity="0.1"/>
    <circle id="spine-node-sacral" class="energy-spine-node" cx="103" cy="108" r="2" fill="#dd6600" opacity="0.1"/>
    <circle id="spine-node-root" class="energy-spine-node" cx="103" cy="120" r="2" fill="#cc3333" opacity="0.1"/>
  </g>
  
  <!-- ORGANS LAYER - Positioned within body silhouette -->
  <g id="organs-layer">
    
    <!-- CROWN - Brain (head area y=0-18) -->
    <g id="organ-crown" class="organ-group" data-region="crown">
      <ellipse id="brain" cx="103" cy="8" rx="8" ry="6" class="organ" data-organ="brain"
        fill="rgba(170,85,221,0.04)" stroke="rgba(170,85,221,0.15)" stroke-width="0.3"/>
      <path d="M98 6 Q101 4, 103 6 Q105 4, 108 6" stroke="rgba(170,85,221,0.1)" stroke-width="0.3" fill="none"/>
    </g>
    
    <!-- THIRD EYE - Pineal (forehead y=12-16) -->
    <g id="organ-thirdeye" class="organ-group" data-region="thirdeye">
      <ellipse id="pineal" cx="103" cy="14" rx="5" ry="3" class="organ" data-organ="pineal"
        fill="rgba(102,85,204,0.04)" stroke="rgba(102,85,204,0.15)" stroke-width="0.3"/>
    </g>
    
    <!-- THROAT - Thyroid (neck y=22-30) -->
    <g id="organ-throat" class="organ-group" data-region="throat">
      <ellipse id="thyroid" cx="103" cy="26" rx="6" ry="4" class="organ" data-organ="thyroid"
        fill="rgba(0,170,204,0.04)" stroke="rgba(0,170,204,0.15)" stroke-width="0.3"/>
    </g>
    
    <!-- HEART REGION - Heart and Lungs (chest y=38-70) -->
    <g id="organ-heart" class="organ-group" data-region="heart">
      <!-- Left Lung -->
      <path id="lung-left" class="organ" data-organ="lung-left" d="
        M90 42 Q82 48, 81 58 Q80 68, 85 75 Q90 80, 97 78 Q102 75, 101 65 Q100 52, 95 45 Q92 42, 90 42 Z"
        fill="rgba(0,187,119,0.03)" stroke="rgba(0,187,119,0.12)" stroke-width="0.3"/>
      
      <!-- Right Lung -->
      <path id="lung-right" class="organ" data-organ="lung-right" d="
        M116 42 Q124 48, 125 58 Q126 68, 121 75 Q116 80, 109 78 Q104 75, 105 65 Q106 52, 111 45 Q114 42, 116 42 Z"
        fill="rgba(0,187,119,0.03)" stroke="rgba(0,187,119,0.12)" stroke-width="0.3"/>
      
      <!-- Heart -->
      <path id="heart-organ" class="organ" data-organ="heart" d="
        M103 50 Q98 46, 94 48 Q89 51, 90 58 Q91 65, 103 75 Q115 65, 116 58 Q117 51, 112 48 Q108 46, 103 50 Z"
        fill="rgba(0,187,119,0.05)" stroke="rgba(0,187,119,0.18)" stroke-width="0.3"/>
    </g>
    
    <!-- SOLAR PLEXUS - Stomach, Liver, Pancreas (y=75-95) -->
    <g id="organ-solar" class="organ-group" data-region="solar">
      <!-- Liver (right side) -->
      <path id="liver" class="organ" data-organ="liver" d="
        M106 78 Q116 77, 122 82 Q127 88, 125 95 Q122 102, 112 104 Q104 105, 102 98 Q100 88, 106 78 Z"
        fill="rgba(204,170,0,0.04)" stroke="rgba(204,170,0,0.14)" stroke-width="0.3"/>
      
      <!-- Stomach (left side) -->
      <path id="stomach" class="organ" data-organ="stomach" d="
        M92 82 Q83 86, 82 94 Q82 102, 90 107 Q98 110, 104 105 Q108 100, 106 92 Q104 84, 96 82 Q94 81, 92 82 Z"
        fill="rgba(204,170,0,0.04)" stroke="rgba(204,170,0,0.14)" stroke-width="0.3"/>
      
      <!-- Pancreas -->
      <path id="pancreas" class="organ" data-organ="pancreas" d="M86 98 Q98 94, 108 96 Q116 98, 122 100"
        fill="none" stroke="rgba(204,170,0,0.12)" stroke-width="1.5" stroke-linecap="round"/>
    </g>
    
    <!-- SACRAL - Kidneys, Intestines (y=95-115) -->
    <g id="organ-sacral" class="organ-group" data-region="sacral">
      <!-- Left Kidney -->
      <ellipse id="kidney-left" class="organ" data-organ="kidney-left" 
        cx="88" cy="92" rx="5" ry="8" transform="rotate(-10, 88, 92)"
        fill="rgba(221,102,0,0.04)" stroke="rgba(221,102,0,0.14)" stroke-width="0.3"/>
      
      <!-- Right Kidney -->
      <ellipse id="kidney-right" class="organ" data-organ="kidney-right" 
        cx="118" cy="92" rx="5" ry="8" transform="rotate(10, 118, 92)"
        fill="rgba(221,102,0,0.04)" stroke="rgba(221,102,0,0.14)" stroke-width="0.3"/>
      
      <!-- Intestines -->
      <ellipse id="intestines" class="organ" data-organ="intestines"
        cx="103" cy="108" rx="14" ry="10"
        fill="rgba(221,102,0,0.03)" stroke="rgba(221,102,0,0.12)" stroke-width="0.3"/>
      <path d="M94 105 Q99 102, 103 105 Q107 102, 112 105" stroke="rgba(221,102,0,0.08)" stroke-width="0.3" fill="none"/>
      <path d="M96 112 Q101 115, 103 112 Q105 115, 110 112" stroke="rgba(221,102,0,0.08)" stroke-width="0.3" fill="none"/>
    </g>
    
    <!-- ROOT - Pelvic floor (y=115-125) -->
    <g id="organ-root" class="organ-group" data-region="root">
      <ellipse id="pelvic-floor" class="organ" data-organ="pelvic"
        cx="103" cy="120" rx="12" ry="7"
        fill="rgba(204,51,51,0.04)" stroke="rgba(204,51,51,0.14)" stroke-width="0.3"/>
    </g>
  </g>
  
  <!-- ENERGY GLOW LAYER - For activation effects -->
  <g id="energy-layer" class="energy-layer">
    <ellipse id="energy-crown" data-region="crown" cx="103" cy="6" rx="18" ry="14" fill="url(#glow-crown)" opacity="0"/>
    <ellipse id="energy-thirdeye" data-region="thirdeye" cx="103" cy="14" rx="14" ry="10" fill="url(#glow-thirdeye)" opacity="0"/>
    <ellipse id="energy-throat" data-region="throat" cx="103" cy="26" rx="16" ry="10" fill="url(#glow-throat)" opacity="0"/>
    <ellipse id="energy-heart" data-region="heart" cx="103" cy="58" rx="28" ry="22" fill="url(#glow-heart)" opacity="0"/>
    <ellipse id="energy-solar" data-region="solar" cx="103" cy="90" rx="26" ry="18" fill="url(#glow-solar)" opacity="0"/>
    <ellipse id="energy-sacral" data-region="sacral" cx="103" cy="108" rx="22" ry="14" fill="url(#glow-sacral)" opacity="0"/>
    <ellipse id="energy-root" data-region="root" cx="103" cy="120" rx="18" ry="12" fill="url(#glow-root)" opacity="0"/>
  </g>
  
  <!-- LABELS LAYER -->
  <g id="labels-layer" class="labels-layer" font-family="Arial, sans-serif">
    <!-- Chakra Labels -->
    <text class="chakra-label" x="103" y="-4" font-size="4" font-weight="500" text-anchor="middle" fill="#aa55dd" letter-spacing="0.03em">CROWN</text>
    <text class="chakra-label" x="103" y="20" font-size="3" font-weight="500" text-anchor="middle" fill="#6655cc" letter-spacing="0.03em">THIRD EYE</text>
    <text class="chakra-label" x="103" y="35" font-size="3" font-weight="500" text-anchor="middle" fill="#00aacc" letter-spacing="0.03em">THROAT</text>
    <text class="chakra-label" x="103" y="46" font-size="3.5" font-weight="500" text-anchor="middle" fill="#00bb77" letter-spacing="0.03em">HEART</text>
    <text class="chakra-label" x="103" y="82" font-size="3" font-weight="500" text-anchor="middle" fill="#ccaa00" letter-spacing="0.03em">SOLAR PLEXUS</text>
    <text class="chakra-label" x="103" y="125" font-size="3.5" font-weight="500" text-anchor="middle" fill="#dd6600" letter-spacing="0.03em">SACRAL</text>
    <text class="chakra-label" x="103" y="135" font-size="3.5" font-weight="500" text-anchor="middle" fill="#cc3333" letter-spacing="0.03em">ROOT</text>
    
    <!-- Organ Labels -->
    <text class="organ-label" x="103" y="10" font-size="2.5" text-anchor="middle" fill="rgba(170,85,221,0.7)">Brain</text>
    <text class="organ-label" x="103" y="16" font-size="2.5" text-anchor="middle" fill="rgba(102,85,204,0.6)">Pineal</text>
    <text class="organ-label" x="103" y="28" font-size="2.5" text-anchor="middle" fill="rgba(0,170,204,0.6)">Thyroid</text>
    <text class="organ-label" x="88" y="62" font-size="2.5" text-anchor="middle" fill="rgba(0,187,119,0.6)">Lung</text>
    <text class="organ-label" x="118" y="62" font-size="2.5" text-anchor="middle" fill="rgba(0,187,119,0.6)">Lung</text>
    <text class="organ-label" x="103" y="65" font-size="4" text-anchor="middle" fill="rgba(0,187,119,0.7)">♥</text>
    <text class="organ-label" x="92" y="98" font-size="2.5" text-anchor="middle" fill="rgba(204,170,0,0.6)">Stomach</text>
    <text class="organ-label" x="115" y="90" font-size="2.5" text-anchor="middle" fill="rgba(204,170,0,0.6)">Liver</text>
    <text class="organ-label" x="103" y="100" font-size="2.5" text-anchor="middle" fill="rgba(204,170,0,0.5)">Pancreas</text>
    <text class="organ-label" x="88" y="88" font-size="2.5" text-anchor="middle" fill="rgba(221,102,0,0.6)">Kidney</text>
    <text class="organ-label" x="118" y="88" font-size="2.5" text-anchor="middle" fill="rgba(221,102,0,0.6)">Kidney</text>
    <text class="organ-label" x="103" y="110" font-size="2.5" text-anchor="middle" fill="rgba(221,102,0,0.6)">Intestines</text>
    <text class="organ-label" x="103" y="122" font-size="2.5" text-anchor="middle" fill="rgba(204,51,51,0.6)">Pelvic</text>
  </g>
  
</svg>
